<svg width="498" height="83" viewBox="0 0 498 83" fill="none" xmlns="http://www.w3.org/2000/svg">
<path d="M480.725 82.0716C475.16 82.0716 470.586 80.7395 467.005 78.0753C463.423 75.4111 461.067 71.5772 459.938 66.5736L471.716 62.2849C472.184 64.4618 473.19 66.1513 474.733 67.3534C476.276 68.5231 478.218 69.1079 480.56 69.1079C482.02 69.1079 483.15 68.8317 483.949 68.2794C484.775 67.6946 485.189 66.8823 485.189 65.8426V65.7451C485.189 64.8029 484.844 64.0719 484.155 63.552C483.467 63.0322 481.938 62.3661 479.568 61.5539L473.245 59.4095C469.498 58.1424 466.674 56.2254 464.773 53.6587C462.9 51.0919 461.963 47.9241 461.963 44.1552V44.0577C461.963 38.9892 463.588 34.9441 466.839 31.9225C470.09 28.8684 474.416 27.3413 479.816 27.3413C484.665 27.3413 488.619 28.4947 491.677 30.8016C494.735 33.0759 496.76 36.3899 497.752 40.7437L485.974 45.0324C485.175 41.7509 482.847 40.1101 478.99 40.1101C477.64 40.1101 476.579 40.37 475.807 40.8899C475.063 41.3772 474.692 42.092 474.692 43.0343C474.692 43.879 474.995 44.5613 475.601 45.0812C476.234 45.601 477.433 46.1533 479.196 46.7382L485.519 48.8825C489.845 50.3446 492.999 52.424 494.983 55.1207C496.994 57.785 498 61.2939 498 65.6477V65.8426C498 70.7487 496.416 74.68 493.247 77.6367C490.107 80.5933 485.933 82.0716 480.725 82.0716Z" fill="url(#paint0_linear_1203_1659)"/>
<path d="M441.001 82.12C434.939 82.12 430.283 80.1381 427.032 76.1742C423.781 72.2104 422.156 66.5895 422.156 59.3116V15.7905H436.289V58.2394C436.289 61.2611 436.813 63.5354 437.86 65.0624C438.907 66.557 440.477 67.3043 442.571 67.3043C444.775 67.3043 446.869 66.2646 448.853 64.1852L455.383 76.4179C451.443 80.2193 446.649 82.12 441.001 82.12ZM412.402 41.3281V29.0467H452.862V41.3281H412.402Z" fill="url(#paint1_linear_1203_1659)"/>
<path d="M368.38 80.4146V29.0471H381.894V36.7961H382.266C383.891 33.7744 385.875 31.4514 388.217 29.8268C390.586 28.1698 393.231 27.3413 396.152 27.3413C400.036 27.3413 403.108 28.9171 405.368 32.0687C407.654 35.1878 408.798 39.4115 408.798 44.74V80.4146H394.623V48.5901C394.623 46.2183 394.182 44.3826 393.3 43.083C392.419 41.7509 391.082 41.0848 389.291 41.0848C387.253 41.0848 385.613 41.9458 384.373 43.6678C383.161 45.3573 382.555 47.5504 382.555 50.2472V80.4146H368.38Z" fill="url(#paint2_linear_1203_1659)"/>
<path d="M343.616 82.1204C339.015 82.1204 335.02 81.0157 331.631 78.8063C328.242 76.597 325.611 73.4779 323.738 69.4491C321.892 65.3877 320.969 60.6441 320.969 55.2182V54.3897C320.969 48.9638 321.919 44.2364 323.82 40.2076C325.721 36.1462 328.38 32.9947 331.796 30.7528C335.213 28.4785 339.18 27.3413 343.699 27.3413C347.776 27.3413 351.33 28.3323 354.361 30.3142C357.419 32.2961 359.789 35.0903 361.469 38.6968C363.15 42.3032 363.99 46.5432 363.99 51.4168C363.99 52.8464 363.949 54.1623 363.866 55.3644C363.784 56.5666 363.632 57.6225 363.412 58.5322H328.077V49.4186H351.262V49.906C351.262 46.8519 350.614 44.4963 349.319 42.8393C348.024 41.1498 346.192 40.305 343.823 40.305C340.902 40.305 338.588 41.5722 336.88 44.1064C335.199 46.6407 334.359 50.1334 334.359 54.5846V55.0233C334.359 59.3445 335.172 62.7398 336.797 65.209C338.423 67.6783 340.682 68.913 343.575 68.913C347.377 68.913 350.036 66.7199 351.551 62.3336L363.701 67.792C362.103 72.2757 359.541 75.7847 356.014 78.319C352.515 80.8532 348.382 82.1204 343.616 82.1204Z" fill="url(#paint3_linear_1203_1659)"/>
<path d="M273.888 80.4146V29.0471H285.542V36.065H285.955C286.975 33.2059 288.187 31.0452 289.592 29.5832C291.025 28.0886 292.802 27.3413 294.923 27.3413C297.238 27.3413 299.084 28.3648 300.461 30.4117C301.839 32.4586 302.624 35.3665 302.817 39.1354L301.908 39.2816C302.872 35.4152 304.195 32.4586 305.875 30.4117C307.556 28.3648 309.581 27.3413 311.95 27.3413C317.819 27.3413 320.753 32.8647 320.753 43.9115V80.4146H308.396V46.1046C308.396 44.3826 308.231 43.1317 307.9 42.3519C307.597 41.5397 307.101 41.1336 306.412 41.1336C305.476 41.1336 304.759 41.6696 304.263 42.7418C303.767 43.814 303.52 45.3573 303.52 47.3717V80.4146H291.163V46.2995C291.163 44.4801 290.997 43.1642 290.667 42.3519C290.336 41.5397 289.826 41.1336 289.138 41.1336C288.173 41.1336 287.443 41.6696 286.947 42.7418C286.479 43.7815 286.245 45.3411 286.245 47.4205V80.4146H273.888Z" fill="url(#paint4_linear_1203_1659)"/>
<path d="M252.761 82.1204C248.159 82.1204 244.165 81.0157 240.776 78.8063C237.387 76.597 234.756 73.4779 232.882 69.4491C231.036 65.3877 230.113 60.6441 230.113 55.2182V54.3897C230.113 48.9638 231.064 44.2364 232.965 40.2076C234.866 36.1462 237.525 32.9947 240.941 30.7528C244.357 28.4785 248.325 27.3413 252.843 27.3413C256.921 27.3413 260.475 28.3323 263.506 30.3142C266.564 32.2961 268.933 35.0903 270.614 38.6968C272.295 42.3032 273.135 46.5432 273.135 51.4168C273.135 52.8464 273.094 54.1623 273.011 55.3644C272.928 56.5666 272.777 57.6225 272.556 58.5322H237.222V49.4186H260.406V49.906C260.406 46.8519 259.759 44.4963 258.464 42.8393C257.169 41.1498 255.337 40.305 252.967 40.305C250.047 40.305 247.732 41.5722 246.024 44.1064C244.344 46.6407 243.503 50.1334 243.503 54.5846V55.0233C243.503 59.3445 244.316 62.7398 245.942 65.209C247.567 67.6783 249.826 68.913 252.719 68.913C256.521 68.913 259.18 66.7199 260.695 62.3336L272.846 67.792C271.248 72.2757 268.685 75.7847 265.159 78.319C261.66 80.8532 257.527 82.1204 252.761 82.1204Z" fill="url(#paint5_linear_1203_1659)"/>
<path d="M199.233 80.4144L183.446 29.0469H198.406L203.862 50.1495L206.465 64.2341H206.879L209.482 50.1495L214.607 29.0469H229.402L213.615 80.4144H199.233Z" fill="url(#paint6_linear_1203_1659)"/>
<path d="M156.326 76.369V29.0466H170.212V76.369H156.326ZM142.606 80.4141V68.2302H182.734V80.4141H142.606ZM143.432 41.2305V29.0466H168.724V41.2305H143.432ZM161.905 20.2254C159.481 20.2254 157.401 19.2507 155.665 17.3012C153.957 15.3193 153.103 12.915 153.103 10.0883C153.103 7.13168 153.957 4.71113 155.665 2.82668C157.401 0.942225 159.481 0 161.905 0C164.44 0 166.52 0.942225 168.146 2.82668C169.799 4.71113 170.626 7.13168 170.626 10.0883C170.626 12.915 169.799 15.3193 168.146 17.3012C166.52 19.2507 164.44 20.2254 161.905 20.2254Z" fill="url(#paint7_linear_1203_1659)"/>
<path d="M95.8145 80.4146V9.26025H109.99V35.7725H110.362C113.723 30.1842 118.131 27.39 123.586 27.39C127.471 27.39 130.543 28.9495 132.802 32.0686C135.089 35.1877 136.232 39.4277 136.232 44.7887V80.4146H122.057V48.6388C122.057 43.6353 120.28 41.1335 116.726 41.1335C114.715 41.1335 113.089 41.9782 111.849 43.6678C110.61 45.3573 109.99 47.5666 109.99 50.2958V80.4146H95.8145Z" fill="url(#paint8_linear_1203_1659)"/>
<path d="M72.0835 82.1204C67.5927 82.1204 63.6804 80.9995 60.3466 78.7576C57.0405 76.5158 54.4644 73.3642 52.6185 69.3029C50.8001 65.2415 49.8909 60.4817 49.8909 55.0233V54.4384C49.8909 48.98 50.8138 44.2202 52.6598 40.1588C54.5333 36.0975 57.1644 32.9459 60.5533 30.7041C63.9421 28.4622 67.8957 27.3413 72.4142 27.3413C77.6765 27.3413 82.0434 28.9333 85.5149 32.1174C89.0139 35.3015 91.2456 39.7365 92.2099 45.4223L79.3571 49.2724C78.999 46.6732 78.2137 44.7238 77.0015 43.4241C75.7892 42.1245 74.1775 41.4747 72.1662 41.4747C69.5488 41.4747 67.4962 42.5956 66.0085 44.8375C64.5207 47.0468 63.7768 50.1334 63.7768 54.0973V55.3644C63.7768 59.2308 64.5207 62.3011 66.0085 64.5755C67.5238 66.8498 69.5764 67.987 72.1662 67.987C74.2877 67.987 75.9959 67.2884 77.2908 65.8913C78.6132 64.4618 79.5087 62.4636 79.977 59.8968L92.8711 64.1856C92.1823 67.8245 90.8599 70.9924 88.9037 73.6891C86.9751 76.3533 84.5644 78.4327 81.6715 79.9273C78.8061 81.3893 75.6101 82.1204 72.0835 82.1204Z" fill="url(#paint9_linear_1203_1659)"/>
<path d="M0 80.4142L18.3906 10.6245H31.202L49.4273 80.4142H34.7148L26.7387 40.1584L24.6723 29.0467H24.383L22.5646 40.1584L14.4232 80.4142H0ZM8.55472 68.4739L12.0262 55.5102H36.5745L40.3353 68.4739H8.55472Z" fill="url(#paint10_linear_1203_1659)"/>
<defs>
<linearGradient id="paint0_linear_1203_1659" x1="478.969" y1="81.325" x2="470.542" y2="36.2256" gradientUnits="userSpaceOnUse">
<stop stop-color="white"/>
<stop offset="1"/>
</linearGradient>
<linearGradient id="paint1_linear_1203_1659" x1="433.892" y1="81.215" x2="422.987" y2="26.8363" gradientUnits="userSpaceOnUse">
<stop stop-color="white"/>
<stop offset="1"/>
</linearGradient>
<linearGradient id="paint2_linear_1203_1659" x1="388.589" y1="79.6905" x2="381.084" y2="35.7102" gradientUnits="userSpaceOnUse">
<stop stop-color="white"/>
<stop offset="1"/>
</linearGradient>
<linearGradient id="paint3_linear_1203_1659" x1="342.48" y1="81.373" x2="334.956" y2="35.9024" gradientUnits="userSpaceOnUse">
<stop stop-color="white"/>
<stop offset="1"/>
</linearGradient>
<linearGradient id="paint4_linear_1203_1659" x1="297.32" y1="79.6905" x2="290.801" y2="35.3891" gradientUnits="userSpaceOnUse">
<stop stop-color="white"/>
<stop offset="1"/>
</linearGradient>
<linearGradient id="paint5_linear_1203_1659" x1="251.624" y1="81.373" x2="244.1" y2="35.9024" gradientUnits="userSpaceOnUse">
<stop stop-color="white"/>
<stop offset="1"/>
</linearGradient>
<linearGradient id="paint6_linear_1203_1659" x1="206.424" y1="79.7136" x2="200.193" y2="36.8125" gradientUnits="userSpaceOnUse">
<stop stop-color="white"/>
<stop offset="1"/>
</linearGradient>
<linearGradient id="paint7_linear_1203_1659" x1="162.67" y1="79.317" x2="145.946" y2="15.0948" gradientUnits="userSpaceOnUse">
<stop stop-color="white"/>
<stop offset="1"/>
</linearGradient>
<linearGradient id="paint8_linear_1203_1659" x1="116.023" y1="79.4438" x2="102.832" y2="21.7812" gradientUnits="userSpaceOnUse">
<stop stop-color="white"/>
<stop offset="1"/>
</linearGradient>
<linearGradient id="paint9_linear_1203_1659" x1="71.381" y1="81.373" x2="63.8505" y2="35.9047" gradientUnits="userSpaceOnUse">
<stop stop-color="white"/>
<stop offset="1"/>
</linearGradient>
<linearGradient id="paint10_linear_1203_1659" x1="24.7136" y1="79.4621" x2="14.1491" y2="21.8839" gradientUnits="userSpaceOnUse">
<stop stop-color="white"/>
<stop offset="1"/>
</linearGradient>
</defs>
</svg>
