<svg width="101" height="61" viewBox="0 0 101 61" fill="none" xmlns="http://www.w3.org/2000/svg">
<path d="M61.6996 10.307L63.9251 7.60575L61.6996 10.307ZM68.872 58.8697C70.0112 60.4314 72.2006 60.7738 73.7623 59.6346L99.2106 41.0703C100.772 39.9311 101.115 37.7417 99.9755 36.18C98.8363 34.6184 96.6468 34.2759 95.0852 35.4151L72.4645 51.9167L55.9629 29.296C54.8237 27.7344 52.6342 27.3919 51.0726 28.5311C49.5109 29.6703 49.1685 31.8598 50.3077 33.4214L68.872 58.8697ZM1.19955 10.3071C2.40095 13.5945 2.40036 13.5947 2.39993 13.5949C2.4 13.5948 2.39972 13.5949 2.39986 13.5949C2.40013 13.5948 2.40104 13.5945 2.40257 13.5939C2.40563 13.5928 2.41121 13.5908 2.41927 13.5879C2.43539 13.582 2.46142 13.5727 2.49714 13.5599C2.56857 13.5344 2.67867 13.4954 2.82548 13.4443C3.11912 13.3421 3.55934 13.1915 4.1303 13.0037C5.27263 12.6279 6.9358 12.104 8.99332 11.5205C13.116 10.3514 18.7842 8.95403 24.9959 8.02501C31.2255 7.09331 37.8831 6.65108 44.022 7.32464C50.1815 8.00047 55.5413 9.76822 59.474 13.0083L61.6996 10.307L63.9251 7.60575C58.5627 3.18775 51.7125 1.12645 44.7854 0.366401C37.8377 -0.39591 30.5322 0.119147 23.9605 1.10201C17.371 2.08753 11.3999 3.56201 7.08354 4.78606C4.92154 5.39917 3.16528 5.95215 1.94305 6.35418C1.33173 6.55526 0.853389 6.71879 0.52404 6.83344C0.359348 6.89078 0.231853 6.93591 0.143555 6.96744C0.0994033 6.9832 0.0650464 6.99556 0.0407322 7.00434C0.0285756 7.00874 0.0189292 7.01223 0.0118239 7.01482C0.00827109 7.01611 0.0053531 7.01717 0.0030738 7.018C0.00193639 7.01841 0.000707442 7.01886 0.000137766 7.01907C-0.000930423 7.01946 -0.00183943 7.01979 1.19955 10.3071ZM61.6996 10.307L59.474 13.0083C65.8931 18.2969 68.362 28.5391 68.9435 38.4887C69.2255 43.3135 69.0487 47.78 68.799 51.0475C68.6744 52.6772 68.5325 53.9989 68.4228 54.9058C68.368 55.359 68.3213 55.708 68.289 55.9393C68.2729 56.0549 68.2603 56.1411 68.2521 56.1962C68.2481 56.2237 68.2451 56.2434 68.2433 56.2552C68.2424 56.261 68.2418 56.2649 68.2415 56.2668C68.2414 56.2677 68.2413 56.2681 68.2413 56.268C68.2413 56.2679 68.2414 56.2675 68.2414 56.2675C68.2415 56.2669 68.2416 56.2662 71.6996 56.807C75.1575 57.3479 75.1577 57.3469 75.1579 57.3458C75.1579 57.3453 75.1581 57.344 75.1583 57.343C75.1586 57.3408 75.159 57.3381 75.1595 57.3349C75.1605 57.3286 75.1618 57.3201 75.1634 57.3096C75.1666 57.2887 75.171 57.2596 75.1765 57.2226C75.1874 57.1487 75.2028 57.043 75.2217 56.9073C75.2596 56.636 75.3119 56.2445 75.3722 55.7463C75.4926 54.7504 75.6453 53.3256 75.7786 51.5809C76.0447 48.0994 76.2369 43.3046 75.9316 38.0803C75.3384 27.9314 72.8074 14.9237 63.9251 7.60575L61.6996 10.307Z" fill="url(#paint0_linear_1218_1691)"/>
<defs>
<linearGradient id="paint0_linear_1218_1691" x1="28.1995" y1="-17.8853" x2="35.1995" y2="58.1147" gradientUnits="userSpaceOnUse">
<stop/>
<stop offset="1" stop-color="white"/>
</linearGradient>
</defs>
</svg>
