<svg width="101" height="61" viewBox="0 0 101 61" fill="none" xmlns="http://www.w3.org/2000/svg">
<path d="M61.6996 10.3072L63.9251 7.60587L61.6996 10.3072ZM68.872 58.8698C70.0112 60.4315 72.2006 60.7739 73.7623 59.6347L99.2106 41.0704C100.772 39.9312 101.115 37.7418 99.9755 36.1801C98.8363 34.6185 96.6468 34.2761 95.0852 35.4153L72.4645 51.9169L55.9629 29.2961C54.8237 27.7345 52.6342 27.392 51.0726 28.5312C49.5109 29.6704 49.1685 31.8599 50.3077 33.4215L68.872 58.8698ZM1.19955 10.3073C2.40095 13.5946 2.40036 13.5948 2.39993 13.595C2.4 13.595 2.39972 13.5951 2.39986 13.595C2.40013 13.5949 2.40104 13.5946 2.40257 13.594C2.40563 13.5929 2.41121 13.5909 2.41927 13.588C2.43539 13.5821 2.46142 13.5728 2.49714 13.56C2.56857 13.5345 2.67867 13.4955 2.82548 13.4444C3.11912 13.3422 3.55934 13.1916 4.1303 13.0038C5.27263 12.6281 6.9358 12.1041 8.99332 11.5206C13.116 10.3515 18.7842 8.95415 24.9959 8.02513C31.2255 7.09343 37.8831 6.6512 44.022 7.32477C50.1815 8.00059 55.5413 9.76834 59.474 13.0084L61.6996 10.3072L63.9251 7.60587C58.5627 3.18787 51.7125 1.12657 44.7854 0.366523C37.8377 -0.395788 30.5322 0.119269 23.9605 1.10213C17.371 2.08765 11.3999 3.56213 7.08354 4.78618C4.92154 5.39929 3.16528 5.95227 1.94305 6.3543C1.33173 6.55538 0.853389 6.71891 0.52404 6.83357C0.359348 6.8909 0.231853 6.93603 0.143555 6.96756C0.0994033 6.98332 0.0650464 6.99568 0.0407322 7.00447C0.0285756 7.00886 0.0189292 7.01236 0.0118239 7.01494C0.00827109 7.01623 0.0053531 7.01729 0.0030738 7.01812C0.00193639 7.01854 0.000707442 7.01898 0.000137766 7.01919C-0.000930423 7.01958 -0.00183943 7.01992 1.19955 10.3073ZM61.6996 10.3072L59.474 13.0084C65.8931 18.297 68.362 28.5392 68.9435 38.4888C69.2255 43.3136 69.0487 47.7802 68.799 51.0476C68.6744 52.6774 68.5325 53.999 68.4228 54.9059C68.368 55.3591 68.3213 55.7081 68.289 55.9394C68.2729 56.0551 68.2603 56.1413 68.2521 56.1963C68.2481 56.2238 68.2451 56.2436 68.2433 56.2553C68.2424 56.2612 68.2418 56.265 68.2415 56.2669C68.2414 56.2678 68.2413 56.2682 68.2413 56.2681C68.2413 56.2681 68.2414 56.2676 68.2414 56.2676C68.2415 56.267 68.2416 56.2663 71.6996 56.8071C75.1575 57.348 75.1577 57.347 75.1579 57.3459C75.1579 57.3454 75.1581 57.3442 75.1583 57.3431C75.1586 57.3409 75.159 57.3383 75.1595 57.3351C75.1605 57.3287 75.1618 57.3202 75.1634 57.3098C75.1666 57.2888 75.171 57.2598 75.1765 57.2228C75.1874 57.1488 75.2028 57.0431 75.2217 56.9074C75.2596 56.6361 75.3119 56.2446 75.3722 55.7464C75.4926 54.7505 75.6453 53.3258 75.7786 51.581C76.0447 48.0995 76.2369 43.3048 75.9316 38.0804C75.3384 27.9316 72.8074 14.9238 63.9251 7.60587L61.6996 10.3072Z" fill="white"/>
</svg>
