<svg width="42" height="23" viewBox="0 0 42 23" fill="none" xmlns="http://www.w3.org/2000/svg">
<path d="M25.1254 2.11027L25.5847 0.682298V0.682298L25.1254 2.11027ZM26.04 22.0642C26.3517 22.8318 27.2265 23.2015 27.9941 22.8898L40.5026 17.8117C41.2702 17.5001 41.6398 16.6253 41.3282 15.8577C41.0166 15.0901 40.1417 14.7205 39.3742 15.0321L28.2555 19.5459L23.7416 8.42725C23.43 7.65967 22.5551 7.29003 21.7875 7.60165C21.02 7.91327 20.6503 8.78813 20.9619 9.55572L26.04 22.0642ZM0.928711 9.86638C1.85812 11.0437 1.85789 11.0439 1.85771 11.0441C1.85772 11.0441 1.85759 11.0442 1.85761 11.0442C1.85765 11.0441 1.8579 11.0439 1.85836 11.0436C1.85928 11.0428 1.86104 11.0415 1.86363 11.0394C1.86882 11.0354 1.87732 11.0287 1.88909 11.0196C1.91261 11.0013 1.94915 10.9731 1.99816 10.9357C2.0962 10.8609 2.24406 10.7494 2.43742 10.6074C2.8243 10.3233 3.39247 9.9177 4.10744 9.43948C5.53995 8.48132 7.5489 7.24047 9.86035 6.10259C14.5818 3.77831 20.1579 2.08833 24.6662 3.53823L25.1254 2.11027L25.5847 0.682298C19.8817 -1.15181 13.3594 1.03627 8.53536 3.41105C6.07404 4.6227 3.94841 5.93663 2.43954 6.94587C1.68383 7.45134 1.0796 7.88255 0.661765 8.18938C0.452771 8.34285 0.29019 8.46536 0.178375 8.55068C0.122461 8.59334 0.0792205 8.62672 0.0491983 8.65003C0.0341866 8.66169 0.0224773 8.67083 0.0141386 8.67736C0.00996923 8.68062 0.00664222 8.68323 0.00416613 8.68518C0.00292802 8.68615 0.00190264 8.68696 0.00109106 8.6876C0.000685453 8.68792 0.000236809 8.68827 3.40343e-05 8.68843C-0.00036037 8.68874 -0.000701487 8.68901 0.928711 9.86638ZM25.1254 2.11027L24.6662 3.53823C26.4555 4.11371 27.4388 5.29368 27.9603 6.866C28.5072 8.51441 28.5324 10.5865 28.2554 12.7272C27.9815 14.8445 27.4304 16.8963 26.9403 18.4323C26.6964 19.1967 26.4704 19.8248 26.3065 20.2591C26.2246 20.4761 26.1584 20.6442 26.1134 20.7562C26.091 20.8122 26.0738 20.8542 26.0627 20.8811C26.0571 20.8946 26.0531 20.9044 26.0506 20.9103C26.0494 20.9132 26.0486 20.9152 26.0481 20.9162C26.0479 20.9167 26.0478 20.9169 26.0478 20.9169C26.0478 20.9169 26.0479 20.9168 26.0479 20.9168C26.048 20.9165 26.0481 20.9162 27.4299 21.5C28.8116 22.0838 28.8118 22.0834 28.812 22.0829C28.8121 22.0826 28.8123 22.0821 28.8125 22.0816C28.813 22.0806 28.8135 22.0793 28.8141 22.0778C28.8154 22.0749 28.817 22.0709 28.8191 22.0659C28.8232 22.056 28.829 22.0421 28.8363 22.0245C28.8508 21.9891 28.8715 21.9385 28.8976 21.8736C28.9497 21.7437 29.0235 21.5561 29.1133 21.3184C29.2926 20.8433 29.5363 20.1655 29.7983 19.3442C30.3201 17.7091 30.9255 15.4707 31.2306 13.1121C31.5327 10.7769 31.5594 8.18723 30.8078 5.92144C30.0309 3.57956 28.4158 1.59282 25.5847 0.682298L25.1254 2.11027Z" fill="white"/>
</svg>
