<svg width="315" height="285" viewBox="0 0 315 285" fill="none" xmlns="http://www.w3.org/2000/svg">
<path d="M166.709 86C165.924 85.1173 164.267 83.1889 163.924 82.537L187.275 75L196.915 82.537L186.204 78.8704L166.709 86Z" fill="white"/>
<path d="M143.572 81.3148L142.501 85.1852L125.792 82.537L119.579 80.7037C116.508 82.1975 110.281 85.1852 109.939 85.1852C109.51 85.1852 115.08 78.8704 115.509 78.463C115.851 78.137 122.507 77.1049 125.792 76.6296L132.647 79.6852L143.572 81.3148Z" fill="white"/>
<path d="M166.709 86C165.924 85.1173 164.267 83.1889 163.924 82.537L187.275 75L196.915 82.537L186.204 78.8704L166.709 86Z" stroke="white" stroke-width="2"/>
<path d="M143.572 81.3148L142.501 85.1852L125.792 82.537L119.579 80.7037C116.508 82.1975 110.281 85.1852 109.939 85.1852C109.51 85.1852 115.08 78.8704 115.509 78.463C115.851 78.137 122.507 77.1049 125.792 76.6296L132.647 79.6852L143.572 81.3148Z" stroke="white" stroke-width="2"/>
<path d="M168.715 94.9592L169.055 94.8066M169.055 94.8066L177.203 91.1429H186.345L190.915 94.9592C189.464 96.0068 186.388 98.102 185.692 98.102C184.995 98.102 179.162 98.102 176.333 98.102L169.055 94.8066ZM116.915 91.8163L121.268 89.1224L128.668 88L134.98 88.6735L141.074 91.8163M142.815 95.6327L135.198 91.8163H126.274L118.656 94.8066L124.315 98.102L133.456 99L142.815 95.6327Z" stroke="white" stroke-width="2"/>
<path d="M166.915 93C167.262 92.8194 170.815 89.4624 172.548 87.8065L177.748 86H183.382L189.448 86.9032L192.915 90.0645" stroke="white" stroke-width="2"/>
<path d="M181.915 93V93.6667V93.8333V94V93.8333V93Z" stroke="black" stroke-width="2"/>
<path d="M126.597 96.0714L125.915 92.6429L127.961 92L135.915 92.2143V95.8571L134.324 97.7857L128.87 98L126.597 96.0714Z" fill="white"/>
<path d="M177.597 95.75L176.915 91.75L178.961 91L186.915 91.25V95.5L185.324 97.75L179.87 98L177.597 95.75Z" fill="white"/>
<path d="M131.915 95L132.248 94L132.915 94.75L132.582 95.75L131.582 96L130.915 95.5L131.915 95Z" fill="black"/>
<path d="M184.123 94.208L183.23 93.6478L184.117 93.1772L185.009 93.7374L185.016 94.7682L184.373 95.2978L184.123 94.208Z" fill="black"/>
<path d="M204.915 198L210.516 205.325L248.429 220.836L260.061 232.469L306.16 255.521L313.915 265" stroke="white" stroke-width="2"/>
<path d="M206.792 97.2625L203.545 73.4673L197.483 67.6266V52.2679L191.205 40.5866L167.608 44.913L143.146 55.9453L133.404 58.5412L119.982 52.2679L113.487 58.5412L110.889 67.6266L108.292 65.0308L106.56 55.9453L103.962 65.0308L100.931 73.4673L94.8695 77.7937V104.185L100.931 137.714L108.292 163.889L110.605 165.836M206.792 97.2625L211.988 71.0878L215.235 52.2679L211.988 47.2925V38.4234L208.524 26.5258L197.483 21.1178L191.205 13.3303L181.68 7.70593L173.02 4.89376H158.949L147.042 1H133.404L124.744 4.89376L115.219 11.5997L103.962 17.4403L89.6738 31.5012L81.4474 47.2925V62.2186L84.0452 73.4673L93.7871 102.887L84.0452 101.156L79.7156 104.185V118.895L89.6738 139.445L94.8695 141.824L99.1992 137.714M206.792 97.2625L206.508 101.156M206.508 101.156L215.235 97.2625L218.915 110.891L215.235 126.033L211.988 137.714L206.508 139.445L203.97 135.984M206.508 101.156L203.97 135.984M203.97 135.984L203.545 141.824L197.483 161.942L190.123 167.896M110.605 165.836L124.744 177.734L143.146 186.386H155.269L170.206 184.007L190.123 167.896M110.605 165.836V198.5L106.127 204.774M106.127 204.774L124.744 223.161L134.703 230.299M106.127 204.774L99.1992 195.472M134.703 230.299L138.166 237.005L143.146 242.413V270.535M134.703 230.299L108.292 253.662L99.1992 238.736L94.8695 220.132L96.0848 213.21M143.146 270.535L153.104 282L163.279 248.687L173.886 237.005H184.494L187.197 230.299M143.146 270.535C134.775 263.829 117.687 250.417 116.301 250.417M190.123 167.896L192.721 189.415L197.483 204.774L187.197 230.299M194.452 189.415L201.596 198.5L206.508 223.161L201.596 250.417L187.197 230.299M108.292 184.007L99.1992 195.472M99.1992 195.472L96.0848 213.21M96.0848 213.21L63.9122 237.005L31.656 250.417L3.29649 270.535L0.915161 275.943" stroke="white" stroke-width="2"/>
<path d="M173.915 147.365L163.649 142L155.95 144.27L147.395 142.619C144.187 145.026 137.428 148.933 136.915 149.429L155.95 148.603L173.915 147.365ZM173.915 147.365L163.435 153.762L156.378 155L146.539 154.587L136.915 150.048" stroke="white" stroke-width="2"/>
<path d="M146.591 127.36L144.915 125.68L146.591 124H149.944L152.458 125.68L153.296 127.36L154.972 130H157.906L161.048 127.36L163.353 124C163.702 124 164.61 124 165.448 124C166.287 124 166.775 125.12 166.915 125.68L165.448 127.36L162.515 126.4" stroke="white" stroke-width="2"/>
<path d="M162.988 128.694L167.479 130L171.261 128.694L172.915 124.558V119.986L169.133 115.633L166.297 112.367L164.17 108.231L162.042 104.531L159.915 98" stroke="white" stroke-width="2"/>
<path d="M146.915 128.102L144.248 129L140.37 128.102L138.915 124.735L140.37 120.02L144.248 118" stroke="white" stroke-width="2"/>
</svg>
