<svg width="251" height="99" viewBox="0 0 251 99" fill="none" xmlns="http://www.w3.org/2000/svg">
<path d="M12.332 11.7732C12.201 12.6757 11.487 13.2512 10.5369 13.1133C9.58689 12.9755 8.94057 12.0814 9.12667 10.7988C9.37824 9.06498 10.7894 7.86316 12.4865 7.86688L12.3417 8.86443C11.3879 8.92004 10.6332 9.44108 10.523 10.2011C10.703 10.1302 10.9271 10.09 11.2121 10.1314C11.9484 10.2382 12.4664 10.8469 12.332 11.7732ZM16.5835 12.39C16.4525 13.2926 15.7147 13.8646 14.7884 13.7302C13.8146 13.5889 13.1683 12.6948 13.3544 11.4122C13.606 9.6784 15.0409 8.48003 16.738 8.48375L16.5932 9.4813C15.6394 9.53691 14.8847 10.058 14.7779 10.7942C14.9579 10.7234 15.1786 10.7069 15.4399 10.7448C16.1761 10.8516 16.7179 11.4637 16.5835 12.39ZM22.8985 9.71712L20.7205 24.7279L28.2734 25.8238L27.9598 27.9852L18.0792 26.5516L20.5708 9.3794L22.8985 9.71712ZM34.8466 29.2755C31.4264 28.7792 29.4334 25.9679 29.9572 22.3577C30.4845 18.7237 33.1537 16.5404 36.5263 17.0298C39.8278 17.5088 41.6583 20.1025 41.1586 23.5464L41.038 24.3777L32.0566 23.0988C31.8679 25.5693 32.954 27.1092 35.1629 27.4297C36.8967 27.6813 38.1402 27.1342 38.7132 25.8593L40.8033 26.1625C39.8714 28.5737 37.7205 29.6924 34.8466 29.2755ZM36.2541 18.9061C34.3065 18.6235 32.9026 19.6081 32.3212 21.6094L39.019 22.5812C39.2982 20.6574 38.2254 19.1921 36.2541 18.9061ZM45.9111 30.5898L43.6785 30.2659L45.0914 20.5279L42.8113 20.197L43.0835 18.3207L45.3637 18.6515L45.8909 15.0176L48.1236 15.3415L47.5963 18.9755L49.8764 19.3063L49.6042 21.1827L47.324 20.8518L45.9111 30.5898ZM55.5701 16.228C55.3185 17.9618 53.9039 19.1874 52.2102 19.1599L52.355 18.1623C53.3054 18.1305 54.0601 17.6094 54.1703 16.8494C53.9903 16.9203 53.7696 16.9368 53.4846 16.8954C52.7721 16.792 52.2304 16.1799 52.3648 15.2536C52.4957 14.3511 53.2097 13.7756 54.1598 13.9135C55.1098 14.0513 55.7562 14.9454 55.5701 16.228ZM54.7906 28.4345L56.9282 28.7447C56.7559 29.9323 57.5551 30.7757 59.0277 30.9894C60.5952 31.2169 61.5908 30.7065 61.7459 29.6377C61.8596 28.8539 61.5485 28.3238 60.382 27.8392L58.4083 27.0678C56.4143 26.2692 55.5887 25.1066 55.8369 23.3966C56.147 21.2589 58.1485 20.167 60.7137 20.5392C63.2551 20.908 64.7109 22.5743 64.4379 24.79L62.3003 24.4799C62.4216 23.3092 61.7447 22.4592 60.3909 22.2627C58.9895 22.0594 58.1161 22.5632 57.9611 23.632C57.8473 24.4158 58.3416 25.021 59.4403 25.4715L61.4105 26.2666C63.3129 27.0277 64.1558 28.0715 63.9042 29.8054C63.5837 32.0142 61.4803 33.1399 58.7251 32.7401C55.9937 32.3438 54.4701 30.6434 54.7906 28.4345ZM72.7721 34.4873L75.2637 17.3151L81.8191 18.2662C85.168 18.7521 86.9625 20.7586 86.5524 23.585C86.2664 25.5564 85.2183 26.7624 83.4049 27.2268C85.2154 28.12 85.9893 29.6389 85.6929 31.6815C85.2794 34.5316 82.9614 35.9657 79.565 35.4729L72.7721 34.4873ZM81.3768 20.3119L77.2915 19.7192L76.492 25.2295L80.7198 25.8429C82.6436 26.122 83.8878 25.2355 84.1463 23.4541C84.3944 21.744 83.3956 20.6048 81.3768 20.3119ZM80.6168 27.8893L76.1991 27.2483L75.3996 32.7586L79.8173 33.3996C81.8124 33.6891 83.0769 32.8298 83.3354 31.0484C83.5835 29.3383 82.5882 28.1753 80.6168 27.8893ZM97.2745 26.1835L99.4834 26.504L97.7982 38.1184L95.8031 37.8289L95.8206 36.0369C94.9798 37.1517 93.3154 37.759 91.6053 37.5109C88.8976 37.118 87.6429 35.0686 88.0564 32.2184L89.1041 24.998L91.3367 25.322L90.3959 31.8061C90.034 34.3 90.965 35.4051 92.6751 35.6532C94.7177 35.9496 96.0236 34.8053 96.3854 32.3114L97.2745 26.1835ZM104.215 24.3774C103.407 24.2602 102.839 23.4987 102.956 22.6912C103.077 21.8599 103.835 21.3151 104.642 21.4322C105.45 21.5494 106.022 22.2872 105.901 23.1185C105.784 23.926 105.023 24.4946 104.215 24.3774ZM101.037 38.5884L102.723 26.974L104.955 27.298L103.27 38.9124L101.037 38.5884ZM108.792 39.7135L106.559 39.3895L109.095 21.9086L111.328 22.2325L108.792 39.7135ZM116.692 41.1508C113.319 40.6615 111.642 37.8475 112.155 34.3085C112.672 30.7458 115.118 28.433 118.562 28.9327C120.343 29.1912 121.726 30.1921 122.303 31.7309L123.426 23.9879L125.635 24.3084L123.099 41.7894L121.104 41.4999L121.22 39.3585C120.229 40.8395 118.545 41.4196 116.692 41.1508ZM117.436 39.1974C119.716 39.5283 121.362 38.0453 121.714 35.6226C122.058 33.2475 120.905 31.3341 118.625 31.0032C116.345 30.6724 114.767 32.1895 114.422 34.5646C114.074 36.9635 115.156 38.8666 117.436 39.1974ZM134.016 30.5688C134.443 27.6236 137.108 25.9731 140.647 26.4866C143.925 26.9622 145.773 29.0977 145.532 32.0942L143.181 31.753C143.31 30.0257 142.244 28.8524 140.32 28.5733C138.159 28.2597 136.599 29.1489 136.354 30.8352C136.154 32.2128 136.817 33.1578 138.377 33.7722L141.107 34.8473C143.817 35.8953 145.021 37.6221 144.67 40.0447C144.222 43.1324 141.537 44.7557 137.879 44.225C134.388 43.7184 132.326 41.5518 132.61 38.586L134.986 38.9306C134.795 40.5763 136.021 41.8213 138.183 42.1349C140.463 42.4657 142.067 41.6071 142.315 39.897C142.511 38.5432 141.899 37.5813 140.315 36.9635L137.582 35.9121C134.872 34.8642 133.658 33.0389 134.016 30.5688ZM146.606 39.2587C147.127 35.6722 150.057 33.5268 153.549 34.0334C157.016 34.5365 159.216 37.4263 158.696 41.0128C158.175 44.5992 155.245 46.7447 151.777 46.2415C148.286 45.7349 146.086 42.8451 146.606 39.2587ZM148.863 39.5861C148.511 42.0087 149.81 43.919 152.067 44.2464C154.299 44.5704 156.112 43.1115 156.463 40.6888C156.815 38.2662 155.492 36.3524 153.259 36.0285C151.003 35.7011 149.214 37.1634 148.863 39.5861ZM162.556 47.5144L160.323 47.1904L162.008 35.5761L164.003 35.8655L163.996 37.4166C164.749 36.4102 166.094 35.8294 167.733 36.0672C169.538 36.3291 170.69 37.4177 171.073 38.9527C171.83 37.5831 173.362 36.8839 175.167 37.1458C177.827 37.5318 179.201 39.4287 178.812 42.1126L177.709 49.7131L175.524 49.396L176.547 42.3419C176.813 40.513 175.943 39.3198 174.375 39.0923C172.689 38.8476 171.4 39.8732 171.132 41.7258L170.132 48.6137L167.923 48.2932L168.95 41.2153C169.216 39.3865 168.363 38.2442 166.795 38.0167C165.109 37.7721 163.824 38.7739 163.555 40.6265L162.556 47.5144ZM185.774 51.1743C182.354 50.678 180.361 47.8667 180.885 44.2565C181.412 40.6226 184.081 38.4392 187.454 38.9286C190.755 39.4076 192.586 42.0013 192.086 45.4453L191.965 46.2765L182.984 44.9976C182.795 47.4681 183.881 49.0081 186.09 49.3286C187.824 49.5801 189.068 49.033 189.641 47.7581L191.731 48.0613C190.799 50.4725 188.648 51.5913 185.774 51.1743ZM187.181 40.8049C185.234 40.5223 183.83 41.5069 183.249 43.5082L189.946 44.48C190.226 42.5562 189.153 41.091 187.181 40.8049ZM196.838 52.4887L194.606 52.1647L196.019 42.4267L193.739 42.0959L194.011 40.2195L196.291 40.5503L196.818 36.9164L199.051 37.2403L198.524 40.8743L200.804 41.2051L200.532 43.0815L198.251 42.7506L196.838 52.4887ZM203.358 53.4104L201.126 53.0865L203.659 35.6293L205.891 35.9532L204.782 43.6011C205.701 42.4491 207.226 41.7974 209.031 42.0593C212 42.4901 213.153 44.5732 212.722 47.5421L211.692 54.6438L209.459 54.3198L210.417 47.717C210.758 45.3656 209.78 44.2536 208.117 44.0123C205.956 43.6987 204.564 45.0975 204.275 47.0926L203.358 53.4104ZM217.961 40.8814C217.154 40.7643 216.585 40.0027 216.702 39.1952C216.823 38.3639 217.581 37.8191 218.389 37.9363C219.196 38.0535 219.768 38.7912 219.648 39.6225C219.53 40.4301 218.769 40.9986 217.961 40.8814ZM214.784 55.0925L216.469 43.4781L218.702 43.802L217.017 55.4164L214.784 55.0925ZM222.49 56.2106L220.258 55.8867L221.943 44.2723L223.962 44.5652L223.941 46.381C224.87 45.1578 226.456 44.5877 228.095 44.8255C231.159 45.27 232.288 47.3497 231.858 50.3186L230.827 57.4202L228.595 57.0963L229.553 50.4934C229.894 48.1421 228.939 47.0335 227.229 46.7854C225.139 46.4821 223.71 47.8027 223.383 50.0591L222.49 56.2106ZM234.069 51.658C234.544 48.3803 237.03 46.1219 240.403 46.6113C242.279 46.8835 243.604 47.9488 244.13 49.5044L244.583 47.5572L246.578 47.8467L244.961 58.986C244.431 62.6437 241.837 64.644 238.274 64.1271C235.115 63.6687 233.212 61.5738 233.212 58.5666L235.445 58.8905C235.481 60.642 236.619 61.8256 238.567 62.1082C240.752 62.4252 242.384 61.2069 242.704 58.9981L243.042 56.6704C242.086 57.914 240.448 58.501 238.62 58.2356C235.318 57.7566 233.597 54.9119 234.069 51.658ZM236.308 51.9345C235.991 54.1196 237.097 56.0261 239.282 56.3431C241.538 56.6705 243.15 55.2553 243.481 52.9752C243.805 50.7426 242.709 48.9345 240.429 48.6037C238.197 48.2797 236.619 49.7968 236.308 51.9345ZM70.8429 66.5424L68.6103 66.2185L70.0232 56.4804L67.7431 56.1496L68.0154 54.2733L70.2955 54.6041L70.8228 50.9701L73.0554 51.2941L72.5281 54.928L74.8082 55.2589L74.536 57.1352L72.2559 56.8044L70.8429 66.5424ZM75.095 61.2178C75.6154 57.6314 78.5458 55.4859 82.0373 55.9925C85.5049 56.4956 87.7048 59.3855 87.1844 62.9719C86.664 66.5584 83.7336 68.7038 80.2659 68.2007C76.7745 67.6941 74.5746 64.8042 75.095 61.2178ZM77.3514 61.5452C76.9999 63.9678 78.299 65.8782 80.5554 66.2056C82.788 66.5295 84.6003 65.0706 84.9518 62.648C85.3033 60.2253 83.9804 58.3115 81.7478 57.9876C79.4914 57.6602 77.7029 59.1226 77.3514 61.5452ZM88.9609 62.9387C89.4365 59.661 91.9225 57.4026 95.2952 57.8919C97.1716 58.1642 98.4963 59.2294 99.0224 60.7851L99.4747 58.8379L101.47 59.1273L99.8535 70.2667C99.3228 73.9244 96.7287 75.9246 93.166 75.4077C90.0071 74.9494 88.1042 72.8544 88.104 69.8472L90.3366 70.1712C90.3735 71.9226 91.5114 73.1062 93.459 73.3888C95.6441 73.7059 97.2759 72.4876 97.5964 70.2787L97.9342 67.9511C96.9777 69.1946 95.3404 69.7816 93.5116 69.5163C90.2101 69.0372 88.4888 66.1926 88.9609 62.9387ZM91.2004 63.2151C90.8834 65.4002 91.9891 67.3067 94.1742 67.6238C96.4306 67.9512 98.0425 66.536 98.3733 64.2558C98.6972 62.0232 97.6015 60.2152 95.3214 59.8843C93.0888 59.5604 91.5106 61.0775 91.2004 63.2151ZM107.977 72.2214C104.557 71.7251 102.564 68.9138 103.087 65.3036C103.615 61.6697 106.284 59.4863 109.657 59.9757C112.958 60.4547 114.789 63.0484 114.289 66.4924L114.168 67.3237L105.187 66.0447C104.998 68.5153 106.084 70.0552 108.293 70.3757C110.027 70.6272 111.27 70.0801 111.843 68.8052L113.934 69.1084C113.002 71.5196 110.851 72.6384 107.977 72.2214ZM109.384 61.852C107.437 61.5694 106.033 62.5541 105.451 64.5553L112.149 65.5271C112.428 63.6033 111.356 62.1381 109.384 61.852ZM119.041 73.5358L116.809 73.2118L118.222 63.4738L115.942 63.143L116.214 61.2666L118.494 61.5974L119.021 57.9635L121.254 58.2874L120.727 61.9214L123.007 62.2522L122.734 64.1286L120.454 63.7977L119.041 73.5358ZM125.561 74.4575L123.329 74.1336L125.862 56.6764L128.094 57.0003L126.984 64.6482C127.903 63.4962 129.429 62.8445 131.234 63.1064C134.203 63.5372 135.356 65.6203 134.925 68.5892L133.894 75.6909L131.662 75.3669L132.62 68.7641C132.961 66.4127 131.983 65.3007 130.32 65.0594C128.159 64.7458 126.767 66.1446 126.478 68.1397L125.561 74.4575ZM141.957 77.1517C138.537 76.6555 136.544 73.8442 137.068 70.234C137.595 66.6 140.264 64.4167 143.637 64.906C146.938 65.385 148.769 67.9788 148.269 71.4227L148.148 72.254L139.167 70.9751C138.978 73.4456 140.064 74.9855 142.273 75.306C144.007 75.5576 145.251 75.0105 145.824 73.7355L147.914 74.0388C146.982 76.45 144.831 77.5687 141.957 77.1517ZM143.364 66.7824C141.417 66.4998 140.013 67.4844 139.432 69.4857L146.129 70.4575C146.409 68.5336 145.336 67.0684 143.364 66.7824ZM158.209 67.2629L157.913 69.3055L156.915 69.1608C154.801 68.8541 153.309 69.9471 152.985 72.1797L152.092 78.3313L149.86 78.0074L151.542 66.4167L153.632 66.72L153.519 68.4983C154.17 67.3559 155.451 66.7172 157.042 66.9481C157.446 67.0067 157.772 67.1024 158.209 67.2629ZM164.35 64.3465C164.099 66.0804 162.684 67.306 160.991 67.2785L161.135 66.2809C162.086 66.2491 162.84 65.728 162.951 64.968C162.771 65.0389 162.55 65.0554 162.265 65.014C161.552 64.9106 161.011 64.2985 161.145 63.3722C161.276 62.4696 161.99 61.8942 162.94 62.0321C163.89 62.1699 164.537 63.064 164.35 64.3465ZM168.602 64.9634C168.35 66.6973 166.936 67.9228 165.218 67.8919L165.363 66.8944C166.314 66.8625 167.068 66.3415 167.178 65.5814C166.998 65.6523 166.801 65.6722 166.516 65.6309C165.78 65.524 165.238 64.9119 165.373 63.9856C165.504 63.0831 166.242 62.5111 167.168 62.6455C168.142 62.7868 168.788 63.6808 168.602 64.9634Z" fill="white"/>
</svg>
