<svg width="532" height="372" viewBox="0 0 532 372" fill="none" xmlns="http://www.w3.org/2000/svg">
<path d="M249 312.121L242 318.121V338.121L255 368.121L264.5 377.621H317.5L310 364.121L308.5 357.621L311 337.121L313 317.121L310 314.121L300.5 308.121L299.5 304.621L296 300.621H290L288.5 298.121L285.5 291.121L281 289.621L274 291.121L268.5 289.621L264.5 274.621L261.5 260.121L260 253.121L255.5 250.621L252 253.121V269.121V280.621L252.5 292.121L249 297.121V312.121ZM249 312.121V335.621" stroke="black" stroke-opacity="0.5"/>
<path d="M257 292.121L262 290.121L266 291.121" stroke="black" stroke-opacity="0.5"/>
<path d="M252.5 258.121L258 257.621L260.5 255.621" stroke="black" stroke-opacity="0.5"/>
<path d="M254 274.121L257.5 271.621H259.5L261.5 272.121" stroke="black" stroke-opacity="0.5"/>
<path d="M256 275.621L258 274.121H261L261.5 274.621" stroke="black" stroke-opacity="0.5"/>
<path d="M380 228.621L382 236.121L388.5 241.121L400.5 250.121L416.5 259.621L424.5 260.621L429 266.121L437 277.121L439.5 281.121L439 286.121L432.5 291.621L421.5 287.121M421.5 287.121L415.5 288.121M421.5 287.121L418 283.621L414.5 279.121H408V284.121L409 288.121L406.5 293.621V300.121L409.5 303.621L419.5 308.121L429 312.121L437 317.121L445.5 321.621L457 324.621L464.5 326.621L472.5 328.121L482 333.121L491 340.621C492.667 342.954 496.2 347.621 497 347.621C497.8 347.621 503.333 353.621 506 356.621L510 371.621H548L548.5 320.121L494.5 293.621L482 281.121L460 250.121L440 247.621L426 244.121L412 238.121L397 231.621L388.5 227.121L381.5 224.621L380 228.121L388 234.121L391.5 233.121L393 230.121" stroke="black" stroke-opacity="0.5"/>
<path d="M438 270.121L439 279.621" stroke="black" stroke-opacity="0.5"/>
<path d="M425 262.121C424.2 262.521 416.667 267.621 413 270.121L412 275.121L414 278.621" stroke="black" stroke-opacity="0.5"/>
<path d="M419 274.621L427 279.121L433 280.621L436 276.621" stroke="black" stroke-opacity="0.5"/>
<path d="M430.5 288.121C430.9 287.321 433.667 284.454 435 283.121L433.5 281.121M433.5 281.121L435 282.621L438.5 281.121L436 276.621L433.5 281.121Z" stroke="black" stroke-opacity="0.5"/>
<path d="M436 186.621L429 190.121V194.621L434 197.621L436 204.621L440.5 211.121L454.5 208.621L472 206.621L487 208.621L505.5 204.621H518L526.5 208.621L558.5 232.621L555 179.121L538 165.621H532L516.5 161.621L498.5 154.621L487 148.121L474 140.621L463 137.621L454.5 140.621L444.5 145.621L431 151.121L416.5 154.621L406.5 157.621L392 161.621H380V165.621L385.5 170.621L396 173.621L400.5 172.121L416.5 169.121L438.5 168.204M436 186.621L442.5 187.621L445.5 190.121L440.5 194.621L446 190.621L452.5 189.121L460 188.621L463 181.121V172.121L460.5 168.121V161.621L460 169.121L450.5 168.121H440.5L438.5 168.204M436 186.621L430.5 180.121L431 176.121L438.5 168.204M442 180.121H451L455.5 177.121M455.5 177.121L454.5 174.621H461L456.5 178.621M455.5 177.121C454.833 177.621 453.7 178.621 454.5 178.621C455.3 178.621 456.167 178.621 456.5 178.621M456.5 178.621L457 185.621" stroke="black" stroke-opacity="0.5"/>
<path d="M457 61.1211L460.5 70.1211L457 75.1211L448 84.6211L442.5 90.6211V93.1211L441 97.1211L445 100.121L450 97.1211L461.5 95.1211L471 87.1211C475.333 84.4544 484.2 79.1211 485 79.1211C485.8 79.1211 493.667 73.7878 497.5 71.1211C501.667 66.2878 510.5 56.6211 512.5 56.6211L518 53.1211H546L578 50.6211V0.621094L562 4.12109L534 8.62109L510 12.1211L487 18.1211L465 22.1211L445 29.1211L436.5 39.1211L426.5 53.1211L410 73.6211L395.5 89.1211L380 102.621L385 105.121H392L401.5 100.121L413.5 89.1211L424 82.6211L436.5 70.1211L448 64.1211L457 61.1211ZM457 61.1211L449 49.6211M414 69.6211L416.5 77.6211L417.5 79.1211" stroke="black" stroke-opacity="0.5"/>
<path d="M434 72.6211L434.5 80.6211L444 83.6211L448.5 83.1211L450 82.1211" stroke="black" stroke-opacity="0.5"/>
<path d="M445.5 76.6211C445.9 75.8211 451.333 69.9544 454 67.1211L450.5 65.6211L456.5 62.6211V68.1211M456.5 68.1211L453 65.6211M456.5 68.1211L457 70.6211" stroke="black" stroke-opacity="0.5"/>
<path d="M383.5 103.121L390 98.6211M390 98.6211V94.6211M390 98.6211L382.5 104.121" stroke="black" stroke-opacity="0.5"/>
<path d="M107 47.1211L103 56.1211L101.5 57.6211M101.5 57.6211L98 61.1211L99 70.1211L108 76.1211L111 83.1211L110 80.6211L116.5 83.1211L119 87.6211V93.6211L114.5 92.1211L110 93.6211H103L94 88.6211L68 74.6211L55.5 65.6211L45.5 56.1211H36H19.5L2.5 53.6211L-29 59.1211L-27 8.62109L-15 10.1211L7.5 11.1211L34.5 14.1211L60 15.6211L81 16.6211H96.5L98.5 17.6211L105.5 22.1211L119.5 36.1211L130.5 47.6211L144 61.5566L146 63.6211L154 72.1211L165 81.1211M101.5 57.6211L106 59.1211L116.5 62.6211L127.5 70.1211L138.5 77.1211L146 83.6211L155 89.6211L161.5 92.1211H169L172 90.6211M172 90.6211L165.5 85.6211L165 81.1211M172 90.6211V86.6211L165 81.1211M144 62.1211L143.5 67.1211M143.5 67.1211L142.5 70.6211L141 72.1211L143 71.1211L143.5 67.1211Z" stroke="black" stroke-opacity="0.5"/>
<path d="M109.5 78.6211L122.5 79.6211L124.5 75.1211L124 67.6211" stroke="black" stroke-opacity="0.5"/>
<path d="M102.5 60.1211L107 61.1211L109.5 62.6211L107 61.6211L102.5 60.1211ZM102.5 60.1211L102.467 60.6211M102 67.6211L102.467 60.6211M102.467 60.6211L104.5 63.1211L108.5 67.6211L110 70.1211L112.5 70.6211H115" stroke="black" stroke-opacity="0.5"/>
<path d="M76.5 158.621L80.5 160.121H90.5L97 161.621L98 161.775M76.5 158.621V154.621M76.5 158.621L73.5 163.621L74.5 166.121L78.5 168.121M78.5 168.121L82.5 170.621L87 173.121L90 173.978M78.5 168.121L81 169.371M73.5 166.121L72 172.121L76.5 177.621L79.5 180.621L87 183.621L90.5 185.121M90.5 185.121L92.5 189.121M90.5 185.121L87 182.621L97 180.621M97 180.621L100.5 182.621L104 185.121L103 189.121L98 191.621L96 196.121L94.5 201.121L90.5 204.621L76.5 201.121L61.5 197.121L53.5 198.621L37 194.621L27.5 190.121L19.5 188.121L6 191.621L-0.5 194.621L-7 197.121V150.621H21L42 142.121L58 135.621L73.5 129.621L84 133.121L97 142.121L112.5 147.621L127.5 154.121L139 158.621L150.5 161.621H156.5V166.121L152.5 169.621L145 173.121L133.5 169.621L122 168.121L110 163.621L98 161.775M97 180.621L104 176.121V171.621L100.5 167.121L98 161.775M90 173.978L90.5 174.121L81.5 169.621M90 173.978H93.5M90 173.978L81.5 169.621M81.5 169.621L81 169.371M90.5 163.621L84.5 166.621L82 167.621L81 169.371M78 168.621V173.121L78.5 175.121L79 176.121L78 168.621Z" stroke="black" stroke-opacity="0.5"/>
<path d="M100 275.621V280.621M100 280.621V282.121L100.75 281.371M100 280.621L98.5 285.621V286.621M116.5 293.621L108 298.121H101.5L98.5 290.121V286.621M116.5 293.621H122.5M116.5 293.621L118.808 291.121M112 266.954L113 266.621L124 263.121L138 255.121L149 247.621L154.5 240.121L157 236.121V232.621L154.5 230.621L149 232.621L141 236.121L128 243.621L109.5 251.121L100 252.621L76.5 255.121L54 287.121L40.5 299.621L26.5 308.121L-14 326.121V377.621H12.5L23 367.621L37 353.121C40.6667 350.121 48.3 344.021 49.5 343.621C50.7 343.221 55.6667 338.788 58 336.621L71.5 333.621L87 328.121L98.5 322.621L110.5 317.121L125 309.121L130.5 304.621V299.621L128 296.121V293.621V287.121L126 284.121L122.5 287.121L118.808 291.121M112 266.954L107 268.621L104.5 275.621L101.5 280.621L100.75 281.371M112 266.954L123.5 274.621L124 280.121L122.5 284.121L119.5 289.121L118.808 291.121M98.5 286.621C99.7 287.021 102 288.454 103 289.121L104.5 291.621L107 294.621L103.5 289.121L107.5 286.621L108 286.467M114 284.621C115.234 283.454 117.761 281.021 118 280.621C118.239 280.221 115.433 283.121 114 284.621ZM114 284.621L108 286.467M108 286.467L101.5 284.621L100.75 281.371M100.75 285.621L103.5 286.621L105.5 287.121" stroke="black" stroke-opacity="0.5"/>
<path d="M146 234.121V238.121C146.833 238.621 148.6 239.621 149 239.621C149.4 239.621 153.833 237.288 156 236.121L157 235.121" stroke="black" stroke-opacity="0.5"/>
</svg>
