<svg width="499" height="68" viewBox="0 0 499 68" fill="none" xmlns="http://www.w3.org/2000/svg">
<path d="M485.715 67.5364C480.116 67.5364 475.815 65.7079 472.812 62.0507C469.809 58.3936 468.307 53.2076 468.307 46.4929V6.33936H481.363V45.5037C481.363 48.2915 481.847 50.3899 482.814 51.7988C483.781 53.1777 485.232 53.8671 487.166 53.8671C489.202 53.8671 491.136 52.9079 492.968 50.9894L499 62.2756C495.361 65.7828 490.932 67.5364 485.715 67.5364ZM459.298 29.9009V18.5698H496.671V29.9009H459.298Z" fill="url(#paint0_linear_1218_1678)"/>
<path d="M438.675 67.5365C434.527 67.5365 430.913 66.5023 427.834 64.4339C424.78 62.3656 422.4 59.4578 420.695 55.7108C419.015 51.9637 418.175 47.5721 418.175 42.5361V41.9965C418.175 36.9605 419.028 32.5689 420.733 28.8218C422.464 25.0748 424.894 22.167 428.024 20.0987C431.155 18.0303 434.807 16.9961 438.981 16.9961C443.842 16.9961 447.875 18.4649 451.082 21.4026C454.314 24.3403 456.376 28.4321 457.266 33.678L445.394 37.2302C445.063 34.8321 444.338 33.0335 443.218 31.8345C442.098 30.6354 440.609 30.0359 438.752 30.0359C436.334 30.0359 434.438 31.0701 433.064 33.1385C431.689 35.1769 431.002 38.0246 431.002 41.6818V42.8509C431.002 46.4181 431.689 49.2508 433.064 51.3492C434.463 53.4475 436.359 54.4967 438.752 54.4967C440.711 54.4967 442.289 53.8522 443.485 52.5632C444.707 51.2443 445.534 49.4007 445.967 47.0326L457.877 50.9895C457.241 54.3468 456.019 57.2696 454.212 59.7576C452.431 62.2157 450.204 64.1342 447.532 65.5131C444.885 66.862 441.933 67.5365 438.675 67.5365Z" fill="url(#paint1_linear_1218_1678)"/>
<path d="M395.758 67.5365C391.508 67.5365 387.818 66.5173 384.687 64.4789C381.557 62.4405 379.127 59.5628 377.396 55.8457C375.691 52.0986 374.838 47.722 374.838 42.716V41.9516C374.838 36.9455 375.716 32.5839 377.472 28.8668C379.228 25.1197 381.684 22.212 384.84 20.1436C387.996 18.0453 391.661 16.9961 395.835 16.9961C399.601 16.9961 402.884 17.9104 405.684 19.739C408.509 21.5675 410.697 24.1455 412.25 27.4729C413.802 30.8003 414.578 34.7122 414.578 39.2087C414.578 40.5277 414.54 41.7417 414.464 42.8509C414.388 43.96 414.248 44.9342 414.044 45.7736H381.404V37.3651H402.821V37.8148C402.821 34.997 402.223 32.8237 401.026 31.2949C399.83 29.7361 398.138 28.9567 395.949 28.9567C393.251 28.9567 391.114 30.1258 389.536 32.464C387.983 34.8021 387.207 38.0246 387.207 42.1314V42.5361C387.207 46.523 387.958 49.6555 389.459 51.9337C390.961 54.2119 393.048 55.3511 395.72 55.3511C399.232 55.3511 401.688 53.3276 403.088 49.2808L414.311 54.3169C412.835 58.4536 410.468 61.6911 407.211 64.0293C403.979 66.3674 400.161 67.5365 395.758 67.5365Z" fill="url(#paint2_linear_1218_1678)"/>
<path d="M334.708 65.9627V18.5699H347.191V25.7193H347.535C349.037 22.9315 350.869 20.7881 353.032 19.2893C355.221 17.7605 357.664 16.9961 360.362 16.9961C363.95 16.9961 366.788 18.45 368.875 21.3577C370.987 24.2354 372.043 28.1324 372.043 33.0485V65.9627H358.949V36.6007C358.949 34.4125 358.542 32.7188 357.728 31.5197C356.913 30.2907 355.679 29.6762 354.025 29.6762C352.141 29.6762 350.627 30.4705 349.482 32.0593C348.362 33.6181 347.802 35.6415 347.802 38.1296V65.9627H334.708Z" fill="url(#paint3_linear_1218_1678)"/>
<path d="M292.746 65.9627V18.5699H305.229V25.7193H305.572C307.074 22.9315 308.906 20.7881 311.07 19.2893C313.258 17.7605 315.701 16.9961 318.399 16.9961C321.988 16.9961 324.825 18.45 326.912 21.3577C329.025 24.2354 330.081 28.1324 330.081 33.0485V65.9627H316.987V36.6007C316.987 34.4125 316.579 32.7188 315.765 31.5197C314.951 30.2907 313.716 29.6762 312.062 29.6762C310.179 29.6762 308.665 30.4705 307.519 32.0593C306.399 33.6181 305.84 35.6415 305.84 38.1296V65.9627H292.746Z" fill="url(#paint4_linear_1218_1678)"/>
<path d="M269.031 67.5365C265.086 67.5365 261.574 66.4723 258.494 64.344C255.415 62.1857 252.997 59.233 251.241 55.486C249.511 51.7389 248.645 47.4822 248.645 42.716V41.8167C248.645 37.0204 249.511 32.7637 251.241 29.0467C252.997 25.2996 255.415 22.3619 258.494 20.2336C261.574 18.0752 265.086 16.9961 269.031 16.9961C273.001 16.9961 276.513 18.0752 279.567 20.2336C282.646 22.3619 285.051 25.2996 286.782 29.0467C288.538 32.7637 289.416 37.0204 289.416 41.8167V42.716C289.416 47.4822 288.538 51.7389 286.782 55.486C285.051 59.233 282.646 62.1857 279.567 64.344C276.513 66.4723 273.001 67.5365 269.031 67.5365ZM269.031 54.137C271.296 54.137 273.103 53.0878 274.452 50.9895C275.826 48.8611 276.513 46.0433 276.513 42.5361V41.9965C276.513 38.4893 275.826 35.6865 274.452 33.5881C273.103 31.4598 271.296 30.3956 269.031 30.3956C266.791 30.3956 264.984 31.4598 263.61 33.5881C262.236 35.6865 261.548 38.4893 261.548 41.9965V42.5361C261.548 46.0433 262.236 48.8611 263.61 50.9895C264.984 53.0878 266.791 54.137 269.031 54.137Z" fill="url(#paint5_linear_1218_1678)"/>
<path d="M229.282 67.5371C224.778 67.5371 220.833 66.1732 217.448 63.4453C214.089 60.7174 211.467 56.8954 209.584 51.9793C207.701 47.0631 206.759 41.3376 206.759 34.8027V32.7344C206.759 26.1096 207.663 20.3541 209.469 15.4679C211.302 10.5517 213.872 6.74472 217.181 4.04683C220.515 1.34894 224.409 0 228.862 0C233.749 0 237.795 1.60375 241.002 4.81124C244.234 7.98875 246.385 12.5302 247.454 18.4356L235.199 22.5274C234.716 19.9494 233.952 18.0609 232.909 16.8618C231.891 15.6328 230.491 15.0182 228.71 15.0182C225.986 15.0182 223.874 16.547 222.373 19.6047C220.871 22.6623 220.12 26.9639 220.12 32.5095V35.0276C220.12 40.4833 220.922 44.7699 222.525 47.8875C224.129 50.9751 226.33 52.5189 229.13 52.5189C232.667 52.5189 234.919 49.8659 235.887 44.5601L248.141 48.6519C247.046 54.5873 244.845 59.2186 241.536 62.546C238.228 65.8734 234.143 67.5371 229.282 67.5371Z" fill="url(#paint6_linear_1218_1678)"/>
<path d="M144.746 67.4916C139.605 67.4916 135.381 66.2625 132.072 63.8044C128.764 61.3464 126.588 57.8091 125.544 53.1927L136.424 49.2358C136.857 51.2443 137.786 52.8031 139.211 53.9122C140.636 54.9913 142.43 55.5309 144.593 55.5309C145.942 55.5309 146.986 55.2761 147.724 54.7665C148.487 54.2269 148.869 53.4775 148.869 52.5183V52.4283C148.869 51.559 148.551 50.8846 147.915 50.4049C147.278 49.9253 145.866 49.3108 143.677 48.5614L137.837 46.5829C134.375 45.4138 131.767 43.6452 130.011 41.2771C128.28 38.9089 127.415 35.9862 127.415 32.509V32.419C127.415 27.7427 128.916 24.0106 131.919 21.2228C134.922 18.405 138.918 16.9961 143.906 16.9961C148.386 16.9961 152.038 18.0603 154.863 20.1886C157.687 22.287 159.558 25.3446 160.474 29.3614L149.594 33.3183C148.856 30.2907 146.706 28.7769 143.143 28.7769C141.896 28.7769 140.916 29.0167 140.203 29.4963C139.516 29.946 139.173 30.6054 139.173 31.4748C139.173 32.2541 139.453 32.8837 140.012 33.3633C140.598 33.8429 141.705 34.3525 143.334 34.8921L149.174 36.8705C153.17 38.2195 156.084 40.138 157.917 42.626C159.774 45.0841 160.703 48.3216 160.703 52.3384V52.5183C160.703 57.0447 159.24 60.6719 156.313 63.3998C153.412 66.1276 149.556 67.4916 144.746 67.4916Z" fill="white"/>
<path d="M108.052 67.5364C102.453 67.5364 98.1518 65.7079 95.1487 62.0507C92.1456 58.3936 90.6441 53.2077 90.6441 46.4929V6.33936H103.7V45.5037C103.7 48.2915 104.183 50.3899 105.151 51.7988C106.118 53.1777 107.568 53.8671 109.502 53.8671C111.538 53.8671 113.473 52.9079 115.305 50.9894L121.337 62.2756C117.697 65.7828 113.269 67.5364 108.052 67.5364ZM81.6348 29.9009V18.5698H119.008V29.9009H81.6348Z" fill="white"/>
<path d="M60.0576 67.5365C55.8074 67.5365 52.1172 66.5173 48.9868 64.4789C45.8565 62.4405 43.426 59.5628 41.6954 55.8457C39.9903 52.0986 39.1377 47.722 39.1377 42.716V41.9516C39.1377 36.9455 40.0157 32.5839 41.7718 28.8668C43.5278 25.1197 45.9837 22.212 49.1395 20.1436C52.2953 18.0453 55.9601 16.9961 60.1339 16.9961C63.9005 16.9961 67.1835 17.9104 69.983 19.739C72.808 21.5675 74.9967 24.1455 76.5491 27.4729C78.1016 30.8003 78.8778 34.7122 78.8778 39.2087C78.8778 40.5277 78.8396 41.7417 78.7633 42.8509C78.6869 43.96 78.5469 44.9342 78.3433 45.7736H45.7038V37.3651H67.1199V37.8148C67.1199 34.997 66.5218 32.8237 65.3257 31.2949C64.1296 29.7361 62.4371 28.9567 60.2484 28.9567C57.5507 28.9567 55.4129 30.1258 53.835 32.464C52.2826 34.8021 51.5064 38.0246 51.5064 42.1314V42.5361C51.5064 46.523 52.2571 49.6555 53.7587 51.9337C55.2602 54.2119 57.3471 55.3511 60.0194 55.3511C63.5315 55.3511 65.9874 53.3276 67.3871 49.2808L78.6106 54.3169C77.1345 58.4536 74.7676 61.6911 71.51 64.0293C68.2779 66.3674 64.4604 67.5365 60.0576 67.5365Z" fill="white"/>
<path d="M0 65.9628V1.57324H13.2849V51.2144H37.106V65.9628H0Z" fill="white"/>
<defs>
<linearGradient id="paint0_linear_1218_1678" x1="477.811" y1="67.5364" x2="479" y2="-15.5" gradientUnits="userSpaceOnUse">
<stop stop-color="white"/>
<stop offset="1"/>
</linearGradient>
<linearGradient id="paint1_linear_1218_1678" x1="437.636" y1="67.5365" x2="438" y2="-6.5" gradientUnits="userSpaceOnUse">
<stop stop-color="white"/>
<stop offset="1"/>
</linearGradient>
<linearGradient id="paint2_linear_1218_1678" x1="374.838" y1="42.2663" x2="414.578" y2="42.2663" gradientUnits="userSpaceOnUse">
<stop stop-color="white"/>
<stop offset="1" stop-color="#999999"/>
</linearGradient>
<linearGradient id="paint3_linear_1218_1678" x1="334.708" y1="41.4794" x2="372.043" y2="41.4794" gradientUnits="userSpaceOnUse">
<stop stop-color="white"/>
<stop offset="1" stop-color="#999999"/>
</linearGradient>
<linearGradient id="paint4_linear_1218_1678" x1="292.746" y1="41.4794" x2="330.081" y2="41.4794" gradientUnits="userSpaceOnUse">
<stop stop-color="white"/>
<stop offset="1" stop-color="#999999"/>
</linearGradient>
<linearGradient id="paint5_linear_1218_1678" x1="248.645" y1="42.2663" x2="289.416" y2="42.2663" gradientUnits="userSpaceOnUse">
<stop stop-color="white"/>
<stop offset="1" stop-color="#999999"/>
</linearGradient>
<linearGradient id="paint6_linear_1218_1678" x1="206.759" y1="33.7686" x2="248.141" y2="33.7686" gradientUnits="userSpaceOnUse">
<stop stop-color="white"/>
<stop offset="1" stop-color="#999999"/>
</linearGradient>
</defs>
</svg>
