<svg width="424" height="113" viewBox="0 0 424 113" fill="none" xmlns="http://www.w3.org/2000/svg">
<path d="M402.988 90.4261C396.391 90.4261 390.97 88.9584 386.725 86.0229C382.479 83.0874 379.687 78.8633 378.348 73.3503L392.309 68.625C392.864 71.0235 394.056 72.885 395.885 74.2095C397.714 75.4982 400.016 76.1426 402.792 76.1426C404.523 76.1426 405.862 75.8383 406.809 75.2297C407.789 74.5854 408.279 73.6904 408.279 72.5449V72.4375C408.279 71.3993 407.871 70.5939 407.054 70.0211C406.238 69.4483 404.425 68.7145 401.617 67.8195L394.122 65.4568C389.68 64.0607 386.333 61.9486 384.08 59.1206C381.859 56.2925 380.748 52.8022 380.748 48.6496V48.5422C380.748 42.9577 382.675 38.5008 386.529 35.1716C390.382 31.8065 395.51 30.124 401.911 30.124C407.658 30.124 412.345 31.3949 415.97 33.9365C419.595 36.4424 421.995 40.0938 423.171 44.8908L409.21 49.6161C408.263 46.0005 405.503 44.1927 400.931 44.1927C399.331 44.1927 398.073 44.4791 397.159 45.0519C396.277 45.5888 395.836 46.3764 395.836 47.4146C395.836 48.3453 396.196 49.0971 396.914 49.6698C397.665 50.2426 399.086 50.8512 401.176 51.4955L408.671 53.8582C413.798 55.4691 417.537 57.7602 419.889 60.7315C422.273 63.6669 423.465 67.5331 423.465 72.3301V72.5449C423.465 77.9504 421.587 82.282 417.831 85.5396C414.108 88.7973 409.161 90.4261 402.988 90.4261Z" fill="url(#paint0_linear_1203_1650)"/>
<path d="M355.902 90.48C348.717 90.48 343.198 88.2963 339.344 83.9289C335.491 79.5615 333.564 73.3684 333.564 65.3496V17.3979H350.317V64.1683C350.317 67.4975 350.938 70.0034 352.179 71.6859C353.42 73.3326 355.281 74.156 357.763 74.156C360.376 74.156 362.858 73.0104 365.209 70.7194L372.949 84.1974C368.279 88.3857 362.596 90.48 355.902 90.48ZM322.003 45.5353V32.0036H369.961V45.5353H322.003Z" fill="url(#paint1_linear_1203_1650)"/>
<path d="M295.54 90.4798C290.216 90.4798 285.579 89.2447 281.627 86.7747C277.709 84.3046 274.655 80.8322 272.467 76.3574C270.312 71.8826 269.234 66.6382 269.234 60.6241V59.9797C269.234 53.9656 270.328 48.7212 272.516 44.2464C274.737 39.7716 277.855 36.2992 281.872 33.8291C285.889 31.3591 290.576 30.124 295.931 30.124C302.169 30.124 307.345 31.8781 311.46 35.3864C315.608 38.8946 318.253 43.781 319.396 50.0457L304.161 54.2878C303.737 51.424 302.806 49.2761 301.369 47.8441C299.932 46.4122 298.022 45.6962 295.638 45.6962C292.535 45.6962 290.102 46.9313 288.339 49.4014C286.575 51.8356 285.693 55.2365 285.693 59.6038V61C285.693 65.26 286.575 68.6429 288.339 71.1488C290.135 73.6546 292.568 74.9076 295.638 74.9076C298.152 74.9076 300.177 74.1379 301.712 72.5986C303.279 71.0235 304.341 68.8219 304.896 65.9938L320.18 70.7192C319.363 74.7286 317.796 78.2189 315.477 81.1901C313.191 84.1256 310.333 86.4167 306.904 88.0634C303.508 89.6743 299.72 90.4798 295.54 90.4798Z" fill="url(#paint2_linear_1203_1650)"/>
<path d="M240.468 90.4798C235.015 90.4798 230.279 89.2626 226.262 86.8284C222.245 84.3941 219.127 80.9575 216.906 76.5185C214.718 72.0437 213.624 66.8172 213.624 60.8389V59.926C213.624 53.9477 214.75 48.7391 217.004 44.3001C219.257 39.8253 222.409 36.3529 226.458 33.8828C230.508 31.377 235.21 30.124 240.566 30.124C245.4 30.124 249.612 31.2159 253.205 33.3996C256.83 35.5833 259.638 38.6619 261.63 42.6355C263.623 46.6091 264.619 51.2808 264.619 56.6505C264.619 58.2256 264.57 59.6754 264.472 61C264.374 62.3245 264.194 63.4879 263.933 64.4903H222.049V54.4489H249.531V54.9859C249.531 51.6208 248.763 49.0255 247.228 47.1998C245.694 45.3383 243.522 44.4075 240.713 44.4075C237.252 44.4075 234.508 45.8036 232.484 48.5959C230.491 51.3882 229.495 55.2365 229.495 60.1408V60.6241C229.495 65.3853 230.459 69.1262 232.386 71.8468C234.312 74.5675 236.99 75.9278 240.419 75.9278C244.926 75.9278 248.078 73.5114 249.874 68.6787L264.276 74.6928C262.382 79.6329 259.344 83.4991 255.164 86.2914C251.017 89.0837 246.118 90.4798 240.468 90.4798Z" fill="url(#paint3_linear_1203_1650)"/>
<path d="M177.559 112.818C170.668 112.818 164.479 110.599 158.993 106.16L166.929 92.6278C168.66 94.0597 170.292 95.1158 171.827 95.796C173.395 96.4761 175.028 96.8162 176.726 96.8162C179.143 96.8162 180.988 96.0286 182.261 94.4535C183.568 92.8784 184.221 90.6768 184.221 87.8488V32.0036H201.072V87.2044C201.072 95.1874 198.982 101.452 194.802 105.998C190.654 110.545 184.907 112.818 177.559 112.818ZM165.459 45.4279V32.0036H196.761V45.4279H165.459ZM191.275 22.2844C188.368 22.2844 185.903 21.2104 183.878 19.0625C181.853 16.8788 180.841 14.2298 180.841 11.1153C180.841 7.9293 181.837 5.28023 183.829 3.16814C185.821 1.05605 188.303 0 191.275 0C194.279 0 196.745 1.03815 198.672 3.11444C200.631 5.19074 201.611 7.85771 201.611 11.1153C201.611 14.2656 200.615 16.9146 198.623 19.0625C196.663 21.2104 194.214 22.2844 191.275 22.2844Z" fill="url(#paint4_linear_1203_1650)"/>
<path d="M131.697 90.4798C126.635 90.4798 122.128 89.2089 118.177 86.6673C114.225 84.0898 111.123 80.5637 108.869 76.0889C106.648 71.6141 105.538 66.5308 105.538 60.8389V59.7649C105.538 54.0372 106.648 48.9539 108.869 44.5149C111.123 40.0401 114.225 36.5319 118.177 33.9902C122.128 31.4128 126.635 30.124 131.697 30.124C136.791 30.124 141.298 31.4128 145.217 33.9902C149.169 36.5319 152.255 40.0401 154.476 44.5149C156.729 48.9539 157.856 54.0372 157.856 59.7649V60.8389C157.856 66.5308 156.729 71.6141 154.476 76.0889C152.255 80.5637 149.169 84.0898 145.217 86.6673C141.298 89.2089 136.791 90.4798 131.697 90.4798ZM131.697 74.478C134.603 74.478 136.922 73.2251 138.653 70.7192C140.416 68.1775 141.298 64.8125 141.298 60.6241V59.9797C141.298 55.7913 140.416 52.4442 138.653 49.9383C136.922 47.3967 134.603 46.1258 131.697 46.1258C128.823 46.1258 126.504 47.3967 124.741 49.9383C122.977 52.4442 122.095 55.7913 122.095 59.9797V60.6241C122.095 64.8125 122.977 68.1775 124.741 70.7192C126.504 73.2251 128.823 74.478 131.697 74.478Z" fill="url(#paint5_linear_1203_1650)"/>
<path d="M61.7826 81.6197V32.0034H75.6948V45.2667H76.4786C77.9808 40.3623 80.1525 36.6214 82.9938 34.0439C85.8676 31.4307 89.2314 30.124 93.085 30.124C95.6649 30.124 97.9673 30.6968 99.992 31.8423C102.049 32.9521 104.172 34.8494 106.36 37.5343L96.563 50.6364C95.0607 48.9539 93.6728 47.7904 92.3991 47.1461C91.1582 46.5017 89.7376 46.1795 88.1373 46.1795C84.8063 46.1795 82.2916 47.3072 80.5934 49.5624C78.8952 51.8177 78.0461 55.1828 78.0461 59.6575V81.6197H61.7826ZM51.9854 88.6004V75.0687H94.7015V88.6004H51.9854ZM52.9651 45.5351V32.0034H69.1796V45.5351H52.9651Z" fill="url(#paint6_linear_1203_1650)"/>
<path d="M0 88.6008V11.7063H22.9256C28.4121 11.7063 33.0985 12.7623 36.9847 14.8744C40.9037 16.9865 43.8918 20.0115 45.9493 23.9493C48.0394 27.8513 49.0844 32.5587 49.0844 38.0717V39.1456C49.0844 44.6227 48.0394 49.3302 45.9493 53.268C43.8918 57.2058 40.9037 60.2307 36.9847 62.3428C33.0985 64.4549 28.4121 65.511 22.9256 65.511H9.84627V48.65H22.8277C25.7015 48.65 27.9712 47.8267 29.6368 46.18C31.3023 44.4974 32.1351 42.2422 32.1351 39.4141V37.8032C32.1351 34.9393 31.3023 32.684 29.6368 31.0373C27.9712 29.3906 25.7015 28.5672 22.8277 28.5672H16.8513V88.6008H0Z" fill="url(#paint7_linear_1203_1650)"/>
<defs>
<linearGradient id="paint0_linear_1203_1650" x1="400.615" y1="91.0579" x2="405.933" y2="34.6138" gradientUnits="userSpaceOnUse">
<stop stop-color="white"/>
<stop offset="1"/>
</linearGradient>
<linearGradient id="paint1_linear_1203_1650" x1="347.147" y1="91.2456" x2="354.055" y2="22.9305" gradientUnits="userSpaceOnUse">
<stop stop-color="white"/>
<stop offset="1"/>
</linearGradient>
<linearGradient id="paint2_linear_1203_1650" x1="294.378" y1="91.1121" x2="299.105" y2="34.511" gradientUnits="userSpaceOnUse">
<stop stop-color="white"/>
<stop offset="1"/>
</linearGradient>
<linearGradient id="paint3_linear_1203_1650" x1="238.792" y1="91.1121" x2="243.514" y2="34.5103" gradientUnits="userSpaceOnUse">
<stop stop-color="white"/>
<stop offset="1"/>
</linearGradient>
<linearGradient id="paint4_linear_1203_1650" x1="180.027" y1="114" x2="199.238" y2="11.0471" gradientUnits="userSpaceOnUse">
<stop stop-color="white"/>
<stop offset="1"/>
</linearGradient>
<linearGradient id="paint5_linear_1203_1650" x1="131.359" y1="91.1121" x2="135.964" y2="34.4907" gradientUnits="userSpaceOnUse">
<stop stop-color="white"/>
<stop offset="1"/>
</linearGradient>
<linearGradient id="paint6_linear_1203_1650" x1="78.822" y1="89.213" x2="82.9841" y2="34.3075" gradientUnits="userSpaceOnUse">
<stop stop-color="white"/>
<stop offset="1"/>
</linearGradient>
<linearGradient id="paint7_linear_1203_1650" x1="24.2255" y1="89.4064" x2="32.1474" y2="17.6673" gradientUnits="userSpaceOnUse">
<stop stop-color="white"/>
<stop offset="1"/>
</linearGradient>
</defs>
</svg>
