<svg version="1.2" xmlns="http://www.w3.org/2000/svg" viewBox="0 0 1065 478" width="1080.35" height="477">
	<style>
		.s0 { fill: #000000 } 
	</style>
	<path class="s0" d="m1260 683h-1440v-887h1440zm-1164.15-437q-22.05 0-38.85 8.25-16.65 8.25-26.1 22.95-9.45 14.7-9.45 34.05v0.6q0 41.7 45.6 59.25l29.1 11.25q14.4 5.55 20.1 10.8 5.85 5.25 5.85 12.75v0.6q0 8.4-6.3 13.05-6.15 4.65-17.85 4.65-16.35 0-27.15-8.55-10.8-8.7-13.95-24.45l-47.85 11.85q4.5 20.85 16.8 36.15 12.45 15.3 30.9 23.7 18.45 8.4 41.1 8.4 22.95 0 40.05-7.95 17.1-8.1 26.55-22.5 9.6-14.4 9.6-33.6v-1.2q0-23.55-12.3-39.3-12.3-15.9-38.25-25.95l-29.1-11.25q-11.4-4.5-16.2-8.85-4.8-4.5-4.8-10.8v-0.6q0-7.5 6.15-11.85 6.15-4.35 16.65-4.35 23.85 0 29.55 21.3l47.7-12.75q-7.8-27.3-27.75-41.4-19.8-14.25-49.8-14.25zm63.15 225h52.23l8.75-38.32h56.17l8.57 38.32h53.28l-66-224h-46.4zm591.35-45.86l-52.72-177.14h-46.65l-49.75 165.64-15.53-28.93q16.53-8.99 25.16-24.61 9.15-16.43 9.15-38.49v-1.87q0-22.06-9.15-38.33-8.99-16.42-26.53-25.34-17.39-9.07-42.57-9.07h-120.96v144.45q0 12.98-6.45 20.76-6.3 7.79-17.85 7.79-11.4 0-17.85-7.79-6.45-7.78-6.45-20.76v-144.45h-52.2v146.59q0 23.05 9.45 40.61 9.45 17.41 26.7 27.18 17.25 9.62 40.35 9.62 23.25 0 40.35-9.62 17.25-9.77 26.7-27.18 5.11-9.48 7.45-20.57v57.37h51.27v-76.65h11.45l39.82 76.65h62.99l8.79-38.15h56.49l8.61 38.15h53.58l-0.04-0.15h71.36q21.51 0 36.85-7.04 15.48-7.2 23.76-20.33 8.42-13.14 8.42-30.82v-3.29q0-20.02-10.53-34.41-10.52-14.55-30.68-20.18v-1.56q15.79-6.42 24.22-18.77 8.42-12.52 8.42-30.04v-2.81q0-23.47-16.09-39.11-16.09-15.64-46.63-15.64h-82.71zm114-178.29c-3 0.01 20.61 14.45 28.02 28.68 7.22 13.87 5.01 37.96 5 38.07 0 0-4.23 17.15-11.01 25.55-5.79 7.17-19.01 14.59-19.01 14.59 0.04 0.02 18.35 6.63 26.52 17.73 11.5 15.65 14 32.33 11.5 52.14-1.98 15.73-8.44 23.55-20.01 33.9-9.52 8.51-27.01 13.03-27.01 13.03l94.55 0.31v-88.53h48.02v88.53h58.43v-224h-58.43v84.47h-48.02v-84.47c0 0-85.55 0-88.55 0zm-37.15 128.59q12.18 0 18.95 6.57 6.77 6.41 6.77 18.14v2.5q0 11.73-6.32 18.3-6.32 6.42-18.5 6.42h-26.62v-51.93zm-145.82-33.07l11.08 49.06h-37.59l11.31-49.06 6.62-35.5h1.05zm-425.54-0.58l11.02 49.28h-37.38l11.25-49.28 6.58-35.66h1.05zm285.62-45.68q12.74 0 19.64 6.88 7.05 6.73 7.05 17.84v3.44q0 10.95-7.05 17.83-6.9 6.88-19.64 6.88h-19.19v-52.87zm279.88-5.78q11.13 0 17 6.1 6.01 6.1 6.01 17.21v1.87q0 10.95-5.86 17.21-5.72 6.1-17.15 6.1h-19.85v-48.49zm-337.33-283.13h-51.78v84.39h-43.5v-84.39h-108.64l-52.8 107.28v-107.28h-52.2v178.74l-52.83-178.74h-46.5l-66.75 223.79h52.35l8.76-38.28h56.3l8.59 38.28h92.28v-109.68l55.2 109.68h106.24v-88.45h43.5v88.45h52.2v-0.2h282.08v-51.26h-93.6v-172.54h-188.9zm-147.48 214.12l-54.94-104.9 54.94-105.26zm191.73-41.47h-43.83v-121.9h43.83zm92.45 0h-39.95v-121.9h39.95zm-514.65-77.93l11.04 49.23h-37.46l11.27-49.23 6.6-35.63h1.05z"/>
</svg>