<svg width="485" height="88" viewBox="0 0 485 88" fill="none" xmlns="http://www.w3.org/2000/svg">
<path d="M483.318 1.00012C481.101 4.3277 475.993 10.0876 472.959 12.1631C469.972 14.2071 466.096 15.1963 460.149 17.3413C455.706 18.9439 448.041 20.5922 437.103 22.28C426.165 23.9677 412.103 25.3897 394.825 26.1223C377.548 26.8548 357.482 26.8548 345.407 27.0918C333.332 27.3288 329.856 27.8028 308.631 28.758C287.406 29.7132 248.538 31.1352 222.195 32.7368C195.852 34.3384 183.212 36.0764 171.96 37.2087C160.709 38.341 151.229 38.815 143.027 39.6912C134.825 40.5674 128.189 41.8314 111.499 43.9046C94.8079 45.9778 68.2637 48.8218 54.0364 50.4449C38.6806 52.1967 35.8256 52.7095 32.5602 52.9465C26.5884 53.38 18.4598 55.8887 14.1124 57.5717C11.2953 58.6622 10.1193 61.6342 8.60154 64.2676C6.21939 68.4007 6.60498 71.842 5.9658 74.7243C5.39522 77.2973 4.37381 79.8283 3.57184 82.464C3.35695 83.1702 3.25344 83.9746 3.01405 83.8286C0.112068 82.0584 1.1755 78.095 1.2545 77.0537C1.4452 74.5398 2.76508 83.649 4.59885 85.9807C4.97662 86.4611 5.79104 86.2249 6.59062 85.7509C8.5287 84.602 9.94695 82.8782 10.9835 81.844C11.4727 81.3559 11.5461 80.6518 11.3905 80.0892C11.2349 79.5266 10.7609 79.0526 10.2007 78.9664C9.00851 79.1963 7.72535 79.9958 6.53077 80.951C5.96819 81.4322 5.49419 81.9062 5.00582 82.3946" stroke="white" stroke-width="2" stroke-linecap="round"/>
</svg>
