<svg width="270" height="88" viewBox="0 0 270 88" fill="none" xmlns="http://www.w3.org/2000/svg">
<path d="M268.492 1C268.492 3.85359 267.544 10.2311 265.155 14.229C260.515 21.9937 255.105 22.6892 249.602 25.6482C247.29 26.8913 245.041 26.8547 243.052 27.1707C240.734 27.539 237.079 28.9279 218.71 31.4583C202.997 33.6228 174.429 38.4127 158.749 40.7732C141.212 43.4131 136.059 44.0816 130.402 45.518C123.461 47.2803 111.861 48.6972 104.521 50.6315C100.259 51.7545 96.6257 51.2731 78.2497 53.576C71.5107 54.4206 61.5734 56.5302 49.448 58.1245C40.9799 59.238 29.0108 62.7449 22.1713 65.0718C17.5224 66.6534 14.2736 68.6532 10.0411 73.1203C6.5657 76.7883 5.79902 79.8281 5.39923 84.8531C5.22952 86.9862 3.40506 80.6517 2.52887 78.2529C2.31412 77.665 1.49947 77.4533 1.3319 77.7646C-0.0604042 80.3503 3.23269 83.8117 6.02165 86.378C6.82118 87.1137 8.48024 86.7036 9.37079 86.3876C12.1985 85.3842 12.6553 82.0832 13.0551 81.2023C13.2808 80.705 12.1861 83.0265 10.9125 84.2211C9.63892 85.2576 8.35576 85.746 7.08217 85.825C6.44059 85.904 5.80859 86.062 5.15743 86.2248" stroke="white" stroke-width="2" stroke-linecap="round"/>
</svg>
