<svg width="82" height="78" viewBox="0 0 82 78" fill="none" xmlns="http://www.w3.org/2000/svg">
<path d="M1.00016 1.00012C2.7493 4.00782 3.33624 6.92791 4.5948 10.7138C6.93887 17.765 8.10182 21.7152 9.60859 25.031C10.141 26.2027 11.8863 29.2987 14.8005 33.8672C18.5581 39.7578 23.5608 40.9995 28.4782 42.9925C31.1264 44.0657 35.5244 45.184 41.2069 46.6397C46.3142 47.948 51.0067 49.4707 55.4759 50.2942C61.6375 51.4295 63.8639 53.6493 66.5941 55.5985C70.0886 58.0932 72.7293 61.2357 73.998 63.7237C75.5342 66.7359 75.2639 68.9331 75.753 70.4924C76.2902 72.205 76.7239 74.382 77.1649 76.0406C77.2662 76.4218 77.2145 76.8173 77.07 76.8713C74.956 77.6615 73.1322 72.1627 71.7204 70.5523C71.4005 70.1874 71.0882 69.9201 71.132 70.0121C71.9463 71.7221 74.09 72.6358 75.5062 73.9483C76.2129 74.6033 76.9196 75.2638 77.5503 75.7997C77.8348 76.0414 78.2774 75.8537 78.6687 75.6113C79.4454 74.9835 79.8426 73.3337 79.9389 71.2429C80.0353 70.4048 80.228 70.0194 80.4266 69.0382" stroke="white" stroke-width="2" stroke-linecap="round"/>
</svg>
