<svg width="290" height="82" viewBox="0 0 290 82" fill="none" xmlns="http://www.w3.org/2000/svg">
<path d="M1 1C1.09052 7.80089 3.61641 11.8861 5.71303 14.3258C6.9572 15.7736 8.48419 17.9248 10.813 20.3033C13.3827 22.9278 17.1364 25.4178 20.9267 27.7028C23.6349 29.3354 26.1011 30.3878 30.5031 32.4713C33.6676 33.969 39.0488 35.6147 49.3917 37.6179C59.7347 39.6211 74.96 41.7411 106.316 43.315C137.672 44.889 184.697 45.8526 212.006 46.7344C239.314 47.6163 245.482 48.3872 251.357 49.5071C257.232 50.6269 262.628 52.0724 265.842 53.0579C272.033 54.9566 275.763 57.7315 277.528 60.1712C279.407 62.7685 279.956 65.5223 280.743 67.2802C281.411 68.771 281.813 70.5857 282.446 72.7291C282.957 74.4643 283.273 76.2332 284.148 78.2773C284.511 79.1267 284.637 79.9359 284.59 80.4717C284.445 82.1326 280.564 77.0333 278.61 75.4667C277.662 74.7068 276.756 74.1044 276.608 73.519C276.244 72.0742 279.956 75.9412 281.567 77.5005C282.286 78.1972 282.882 78.9635 283.707 79.2088C286.407 80.0117 287.94 73.6285 288.579 72.1538C289.314 70.4583 287.659 75.9412 286.686 77.5005C286.488 77.8918 286.392 78.2773 286.102 78.7167C285.811 79.1562 285.329 79.638 284.833 80.1344" stroke="white" stroke-width="2" stroke-linecap="round"/>
</svg>
