<svg width="432" height="90" viewBox="0 0 432 90" fill="none" xmlns="http://www.w3.org/2000/svg">
<path d="M1.00012 1.00012C2.74771 3.71007 5.93167 5.93165 10.6358 10.3198C14.7768 14.1826 18.2174 15.3543 24.1042 17.03C33.2391 19.6304 41.0414 21.8993 47.3088 23.4913C51.767 24.6238 59.1062 25.0833 104.168 25.8063C149.229 26.5292 231.864 27.1613 275.539 27.7238C319.214 28.2864 321.426 28.7604 325.173 29.3206C328.919 29.8808 334.133 30.5128 346.22 33.2874C358.307 36.062 377.11 40.96 387.27 43.7202C401.45 47.5728 406.517 53.1692 409.32 55.1777C412.083 57.1574 415.461 59.8818 417.462 61.8784C419.41 63.8218 419.301 66.9009 420.337 70.8079C421.288 74.3901 422.173 76.9555 423.131 79.9073C424.545 84.2645 424.409 86.3781 424.333 87.2567C424.143 89.4334 419.32 85.2769 417.232 83.5964C417.042 83.4431 417.855 83.3522 418.417 83.5892C421.05 84.6981 423.284 87.1729 425.678 88.1401C428.506 89.2824 428.877 83.5245 430.152 82.0762C430.318 82.227 430.16 83.017 429.762 83.74C429.365 84.463 428.733 85.095 426.645 85.7461" stroke="white" stroke-width="2" stroke-linecap="round"/>
</svg>
